<svg id="Layer_1" data-name="Layer 1" xmlns="http://www.w3.org/2000/svg" viewBox="0 0 772.28 39.15"><defs><style>.cls-1{fill:#f3f3f3;}</style></defs><path class="cls-1" d="M22.22,49.25H35.88c5.34,0,8.6,3.22,8.6,7.82a7,7,0,0,1-5.38,7c3.27.51,6,3.86,6,7.54,0,4.93-3.27,8.29-8.88,8.29h-14Zm13,13.3c3.45,0,5.29-2.12,5.29-4.93s-1.84-5-5.29-5H26v9.9Zm.18,14c3.59,0,5.7-2,5.7-5.29,0-2.81-1.93-5.29-5.7-5.29H26V76.53Z" transform="translate(-22.22 -49.25)"/><path class="cls-1" d="M49.72,68.8c0-6.44,4.24-11.64,11-11.64s11,5.2,11,11.64-4.23,11.69-11,11.69S49.72,75.24,49.72,68.8Zm18.36,0c0-4.51-2.62-8.55-7.36-8.55s-7.41,4-7.41,8.55,2.67,8.61,7.41,8.61S68.08,73.36,68.08,68.8Z" transform="translate(-22.22 -49.25)"/><path class="cls-1" d="M76,68.8c0-6.44,4.23-11.64,11-11.64s11,5.2,11,11.64S93.79,80.49,87,80.49,76,75.24,76,68.8Zm18.35,0c0-4.51-2.62-8.55-7.36-8.55s-7.41,4-7.41,8.55,2.67,8.61,7.41,8.61S94.39,73.36,94.39,68.8Z" transform="translate(-22.22 -49.25)"/><path class="cls-1" d="M110.77,70l-3.68,3.64v6.35h-3.46V49.25h3.46V69.54l11.68-11.83h4.37L113.3,67.79l9.89,12.15h-4.42Z" transform="translate(-22.22 -49.25)"/><path class="cls-1" d="M148.21,67l-12.1-17.71h4.46l9.53,14.26,9.52-14.26h4.46L152,67v13h-3.82Z" transform="translate(-22.22 -49.25)"/><path class="cls-1" d="M160.81,68.8c0-6.44,4.23-11.64,11-11.64s11,5.2,11,11.64-4.23,11.69-11,11.69S160.81,75.24,160.81,68.8Zm18.36,0c0-4.51-2.62-8.55-7.36-8.55s-7.41,4-7.41,8.55,2.67,8.61,7.41,8.61S179.17,73.36,179.17,68.8Z" transform="translate(-22.22 -49.25)"/><path class="cls-1" d="M203.41,76.81a10.87,10.87,0,0,1-7.91,3.68c-4.65,0-7.09-2.26-7.09-7.09V57.71h3.45V72.34c0,3.92,2,5.07,5,5.07a8.53,8.53,0,0,0,6.58-3.36V57.71h3.45V79.94h-3.45Z" transform="translate(-22.22 -49.25)"/><path class="cls-1" d="M213.76,57.71h3.45V61.3a9.45,9.45,0,0,1,7.4-4V60.8a6.11,6.11,0,0,0-1.38-.14,8.13,8.13,0,0,0-6,3.54V79.94h-3.45Z" transform="translate(-22.22 -49.25)"/><path class="cls-1" d="M240.94,49.25h20.11v3.4H244.76v9.9h16V66h-16V76.53h16.29v3.41H240.94Z" transform="translate(-22.22 -49.25)"/><path class="cls-1" d="M274.71,70.83,268,79.94h-4l8.51-11.41-8-10.82h4l6.17,8.47,6.16-8.47h4l-8.05,10.82,8.56,11.41h-4Z" transform="translate(-22.22 -49.25)"/><path class="cls-1" d="M289.33,88.4V57.71h3.45V61a9.28,9.28,0,0,1,7.5-3.87c5.85,0,9.89,4.42,9.89,11.64s-4,11.69-9.89,11.69a9.13,9.13,0,0,1-7.5-3.91V88.4Zm10.08-28.15a8.23,8.23,0,0,0-6.63,3.54v10a8.27,8.27,0,0,0,6.63,3.59c4.46,0,7.13-3.69,7.13-8.61S303.87,60.25,299.41,60.25Z" transform="translate(-22.22 -49.25)"/><path class="cls-1" d="M325.4,57.16c6.71,0,10.67,5.25,10.67,11.92V70h-18c.28,4.19,3.22,7.69,8,7.69a9.73,9.73,0,0,0,6.85-2.81l1.66,2.25a12.07,12.07,0,0,1-8.83,3.41c-6.58,0-11.32-4.74-11.32-11.69C314.45,62.36,319.05,57.16,325.4,57.16Zm-7.32,10.26h14.59c-.05-3.31-2.26-7.4-7.32-7.4C320.61,60,318.27,64,318.08,67.42Z" transform="translate(-22.22 -49.25)"/><path class="cls-1" d="M341.63,57.71h3.45V61.3a9.49,9.49,0,0,1,7.41-4V60.8a6.18,6.18,0,0,0-1.38-.14,8.17,8.17,0,0,0-6,3.54V79.94h-3.45Z" transform="translate(-22.22 -49.25)"/><path class="cls-1" d="M356.22,51.64a2.32,2.32,0,0,1,4.64,0,2.32,2.32,0,1,1-4.64,0Zm.59,6.07h3.45V79.94h-3.45Z" transform="translate(-22.22 -49.25)"/><path class="cls-1" d="M376.82,57.16c6.72,0,10.68,5.25,10.68,11.92V70h-18c.28,4.19,3.22,7.69,8,7.69a9.75,9.75,0,0,0,6.86-2.81L386,77.08a12.08,12.08,0,0,1-8.84,3.41c-6.58,0-11.32-4.74-11.32-11.69C365.87,62.36,370.48,57.16,376.82,57.16Zm-7.31,10.26h14.58c0-3.31-2.25-7.4-7.31-7.4C372,60,369.69,64,369.51,67.42Z" transform="translate(-22.22 -49.25)"/><path class="cls-1" d="M408.06,65.4c0-3.91-2-5.15-5-5.15a8.57,8.57,0,0,0-6.58,3.45V79.94h-3.45V57.71h3.45v3.23a11,11,0,0,1,7.91-3.78c4.65,0,7.09,2.35,7.09,7.18v15.6h-3.45Z" transform="translate(-22.22 -49.25)"/><path class="cls-1" d="M428.21,57.16A9.51,9.51,0,0,1,436.35,61l-2.3,2.11a6.59,6.59,0,0,0-5.66-2.89c-4.74,0-7.68,3.63-7.68,8.55s2.94,8.61,7.68,8.61a6.7,6.7,0,0,0,5.66-2.9l2.3,2.11a9.51,9.51,0,0,1-8.14,3.87c-6.63,0-11.09-5.06-11.09-11.69S421.58,57.16,428.21,57.16Z" transform="translate(-22.22 -49.25)"/><path class="cls-1" d="M450.84,57.16c6.71,0,10.67,5.25,10.67,11.92V70h-18c.28,4.19,3.22,7.69,8,7.69a9.73,9.73,0,0,0,6.85-2.81L460,77.08a12.07,12.07,0,0,1-8.83,3.41c-6.58,0-11.32-4.74-11.32-11.69C439.89,62.36,444.49,57.16,450.84,57.16Zm-7.32,10.26h14.59c-.05-3.31-2.26-7.4-7.32-7.4C446.05,60,443.71,64,443.52,67.42Z" transform="translate(-22.22 -49.25)"/><path class="cls-1" d="M492.37,62.09l-5.79,17.85h-3.45L476,57.71h3.59l5.43,17.72,5.84-17.72h3l5.84,17.72,5.43-17.72h3.59l-7.09,22.23h-3.45Z" transform="translate(-22.22 -49.25)"/><path class="cls-1" d="M512.11,51.64a2.32,2.32,0,0,1,4.64,0,2.32,2.32,0,1,1-4.64,0Zm.6,6.07h3.45V79.94h-3.45Z" transform="translate(-22.22 -49.25)"/><path class="cls-1" d="M523.75,75.29V60.75h-3.69v-3h3.69V51.64h3.44v6.07h4.51v3h-4.51v13.8c0,1.66.74,2.86,2.26,2.86a3.36,3.36,0,0,0,2.35-.92l1,2.57a5.65,5.65,0,0,1-4.14,1.43C525.4,80.49,523.75,78.6,523.75,75.29Z" transform="translate(-22.22 -49.25)"/><path class="cls-1" d="M551.62,65.31c0-3.91-2-5.06-5-5.06A8.71,8.71,0,0,0,540,63.7V79.94h-3.45V49.25H540V60.94a11,11,0,0,1,8-3.78c4.64,0,7.08,2.26,7.08,7.09V79.94h-3.45Z" transform="translate(-22.22 -49.25)"/><path class="cls-1" d="M581.57,52.65h-9.71v-3.4h23.28v3.4h-9.75V79.94h-3.82Z" transform="translate(-22.22 -49.25)"/><path class="cls-1" d="M615.1,65.31c0-3.91-2-5.06-5-5.06a8.71,8.71,0,0,0-6.58,3.45V79.94h-3.45V49.25h3.45V60.94a11,11,0,0,1,8-3.78c4.64,0,7.08,2.26,7.08,7.09V79.94H615.1Z" transform="translate(-22.22 -49.25)"/><path class="cls-1" d="M635.11,57.16c6.72,0,10.67,5.25,10.67,11.92V70h-18a7.83,7.83,0,0,0,8,7.69,9.71,9.71,0,0,0,6.85-2.81l1.66,2.25a12.07,12.07,0,0,1-8.83,3.41c-6.58,0-11.32-4.74-11.32-11.69C624.16,62.36,628.76,57.16,635.11,57.16ZM627.8,67.42h14.58c0-3.31-2.26-7.4-7.32-7.4C630.33,60,628,64,627.8,67.42Z" transform="translate(-22.22 -49.25)"/><path class="cls-1" d="M663.35,49.25h3.82V79.94h-3.82Z" transform="translate(-22.22 -49.25)"/><path class="cls-1" d="M689.21,65.4c0-3.91-2-5.15-5-5.15a8.56,8.56,0,0,0-6.58,3.45V79.94h-3.45V57.71h3.45v3.23a11,11,0,0,1,7.91-3.78c4.65,0,7.09,2.35,7.09,7.18v15.6h-3.45Z" transform="translate(-22.22 -49.25)"/><path class="cls-1" d="M699.42,74.51a10.05,10.05,0,0,0,7.31,3.17c3.41,0,5.25-1.52,5.25-3.68,0-2.44-2.72-3.22-5.71-4-3.77-.87-8-1.88-8-6.48,0-3.45,3-6.4,8.28-6.4a11.29,11.29,0,0,1,8.24,3.22l-1.61,2.4A8.68,8.68,0,0,0,706.5,60c-3,0-4.92,1.38-4.92,3.36,0,2.16,2.53,2.85,5.43,3.54,3.86.87,8.32,2,8.32,6.9,0,3.73-3,6.72-8.74,6.72a11.84,11.84,0,0,1-9-3.5Z" transform="translate(-22.22 -49.25)"/><path class="cls-1" d="M720.35,51.64a2.32,2.32,0,0,1,4.64,0,2.32,2.32,0,1,1-4.64,0Zm.59,6.07h3.45V79.94h-3.45Z" transform="translate(-22.22 -49.25)"/><path class="cls-1" d="M747.39,76.62a9.33,9.33,0,0,1-7.49,3.87c-5.8,0-9.9-4.42-9.9-11.64s4-11.69,9.9-11.69a9.29,9.29,0,0,1,7.49,3.91V49.25h3.46V79.94h-3.46Zm0-12.79a8.34,8.34,0,0,0-6.67-3.58c-4.46,0-7.13,3.68-7.13,8.6s2.67,8.56,7.13,8.56a8.27,8.27,0,0,0,6.67-3.5Z" transform="translate(-22.22 -49.25)"/><path class="cls-1" d="M767.4,57.16c6.72,0,10.68,5.25,10.68,11.92V70h-18a7.83,7.83,0,0,0,8,7.69A9.75,9.75,0,0,0,775,74.83l1.65,2.25a12,12,0,0,1-8.83,3.41c-6.58,0-11.32-4.74-11.32-11.69C756.45,62.36,761.06,57.16,767.4,57.16Zm-7.31,10.26h14.58c0-3.31-2.25-7.4-7.31-7.4C762.62,60,760.27,64,760.09,67.42Z" transform="translate(-22.22 -49.25)"/><path class="cls-1" d="M783.64,57.71h3.45V61.3a9.46,9.46,0,0,1,7.41-4V60.8a6.24,6.24,0,0,0-1.38-.14,8.13,8.13,0,0,0-6,3.54V79.94h-3.45Z" transform="translate(-22.22 -49.25)"/></svg>