<svg id="a0747d4e-8887-497f-883b-9e619f97ed28" data-name="Layer 1" xmlns="http://www.w3.org/2000/svg" viewBox="0 0 226.92 70.28"><defs><style>.fa1e1149-c995-4b75-9330-b76087bf2503{fill:#f3f3f3;}.bd57105c-9de4-491f-bd77-53fd299020f4{fill:#e84041;}</style></defs><path class="fa1e1149-c995-4b75-9330-b76087bf2503" d="M103.39,38V44.6h10.82V38Z" transform="translate(-15.97 -9.46)"/><path class="fa1e1149-c995-4b75-9330-b76087bf2503" d="M106.61,39.93h7.6V53.66a19.79,19.79,0,0,1-6,2.87,24.15,24.15,0,0,1-6.78,1,18.11,18.11,0,0,1-8.61-2,15.08,15.08,0,0,1-6-5.63,15.51,15.51,0,0,1-2.18-8.17,15.51,15.51,0,0,1,2.18-8.17,14.92,14.92,0,0,1,6-5.63,18.55,18.55,0,0,1,8.74-2,19.57,19.57,0,0,1,7.65,1.43,14.8,14.8,0,0,1,5.65,4.13l-5.48,5A9.64,9.64,0,0,0,102,33a8.18,8.18,0,0,0-8.69,8.69,9.14,9.14,0,0,0,1.09,4.5,7.79,7.79,0,0,0,3,3.09A8.91,8.91,0,0,0,102,50.41a11.1,11.1,0,0,0,4.65-1Z" transform="translate(-15.97 -9.46)"/><path class="fa1e1149-c995-4b75-9330-b76087bf2503" d="M140.77,27.86a10.73,10.73,0,0,1,0,19.74A17.34,17.34,0,0,1,133.6,49h-5.3v8h-8.61V26.49H133.6A17.4,17.4,0,0,1,140.77,27.86ZM137.08,41a4.1,4.1,0,0,0,1.34-3.28,4.16,4.16,0,0,0-1.34-3.31,6,6,0,0,0-4-1.17H128.3v8.91h4.78A6,6,0,0,0,137.08,41Z" transform="translate(-15.97 -9.46)"/><path class="fa1e1149-c995-4b75-9330-b76087bf2503" d="M155.25,56.61a17.53,17.53,0,0,1-5.65-2.43l2.83-6.35a19.12,19.12,0,0,0,10,3c3.3,0,4.95-.82,4.95-2.48A2,2,0,0,0,166,46.42a26.59,26.59,0,0,0-4.54-1.33,44,44,0,0,1-5.74-1.58,9.78,9.78,0,0,1-3.95-2.72,7.36,7.36,0,0,1-1.65-5,8.67,8.67,0,0,1,1.52-5,10.13,10.13,0,0,1,4.54-3.54,18.65,18.65,0,0,1,7.41-1.31,26.65,26.65,0,0,1,5.91.67,18.16,18.16,0,0,1,5.13,2L172,34.92a17.78,17.78,0,0,0-8.43-2.35,7,7,0,0,0-3.74.77,2.27,2.27,0,0,0-1.17,2A2,2,0,0,0,160,37.14a24.22,24.22,0,0,0,4.48,1.26A43.87,43.87,0,0,1,170.27,40a10.08,10.08,0,0,1,4,2.7,7.21,7.21,0,0,1,1.67,5,8.59,8.59,0,0,1-1.52,4.95,10.37,10.37,0,0,1-4.56,3.55,18.57,18.57,0,0,1-7.39,1.32A28.1,28.1,0,0,1,155.25,56.61Z" transform="translate(-15.97 -9.46)"/><path class="bd57105c-9de4-491f-bd77-53fd299020f4" d="M205.42,39.93H213V53.66a19.85,19.85,0,0,1-6,2.87,24.1,24.1,0,0,1-6.78,1,18.11,18.11,0,0,1-8.61-2,15.08,15.08,0,0,1-6-5.63,15.62,15.62,0,0,1-2.17-8.17,15.59,15.59,0,0,1,2.17-8.17,15,15,0,0,1,6.05-5.63,18.55,18.55,0,0,1,8.74-2,19.64,19.64,0,0,1,7.65,1.43,14.88,14.88,0,0,1,5.65,4.13l-5.48,5A9.66,9.66,0,0,0,200.86,33a8.18,8.18,0,0,0-8.7,8.69,9.25,9.25,0,0,0,1.09,4.5,7.86,7.86,0,0,0,3,3.09,8.94,8.94,0,0,0,4.48,1.11,11.18,11.18,0,0,0,4.66-1V39.93Z" transform="translate(-15.97 -9.46)"/><path class="bd57105c-9de4-491f-bd77-53fd299020f4" d="M225,33.31h-9.35V26.49h27.25v6.82h-9.3V56.92H225V33.31Z" transform="translate(-15.97 -9.46)"/><path class="fa1e1149-c995-4b75-9330-b76087bf2503" d="M89,73.87a4.56,4.56,0,0,1-3.22-1.22,4.15,4.15,0,0,1-1.3-3.18,4.11,4.11,0,0,1,1.3-3.18A4.55,4.55,0,0,1,89,65.08,3.88,3.88,0,0,1,92.55,67l-1.5.82a2.45,2.45,0,0,0-.83-.8A2.24,2.24,0,0,0,89,66.68a2.53,2.53,0,0,0-1.9.79,3,3,0,0,0,0,4,2.52,2.52,0,0,0,1.9.78,2.73,2.73,0,0,0,1-.19,2.15,2.15,0,0,0,.78-.46v-1H88.61V69h4v3.26A4.65,4.65,0,0,1,89,73.87Z" transform="translate(-15.97 -9.46)"/><path class="fa1e1149-c995-4b75-9330-b76087bf2503" d="M102.24,73.71h-2.08l-1.67-3H97.17v3H95.36v-8.5h4a2.82,2.82,0,0,1,2.08.77,2.68,2.68,0,0,1,.77,2,2.49,2.49,0,0,1-.55,1.69,2.35,2.35,0,0,1-1.31.83Zm-3.17-4.62a1.35,1.35,0,0,0,.92-.31,1,1,0,0,0,.35-.83,1.05,1.05,0,0,0-.35-.83,1.35,1.35,0,0,0-.92-.31h-1.9V69.1h1.9Z" transform="translate(-15.97 -9.46)"/><path class="fa1e1149-c995-4b75-9330-b76087bf2503" d="M112.75,73.71h-2.06l-.53-1.44h-3.64L106,73.71h-2.06l3.28-8.5h2.27Zm-3.08-3L108.34,67,107,70.67Z" transform="translate(-15.97 -9.46)"/><path class="fa1e1149-c995-4b75-9330-b76087bf2503" d="M122.41,73.71h-1.74l-4-5.54v5.54h-1.81v-8.5h1.86l3.93,5.34V65.21h1.81Z" transform="translate(-15.97 -9.46)"/><path class="fa1e1149-c995-4b75-9330-b76087bf2503" d="M128.71,73.71h-3.35v-8.5h3.35A4.57,4.57,0,0,1,132,66.39a4.39,4.39,0,0,1,0,6.15A4.57,4.57,0,0,1,128.71,73.71Zm0-1.6a2.52,2.52,0,0,0,1.94-.76,2.9,2.9,0,0,0,0-3.8,2.53,2.53,0,0,0-2-.74h-1.54v5.31h1.54Z" transform="translate(-15.97 -9.46)"/><path class="fa1e1149-c995-4b75-9330-b76087bf2503" d="M144.1,73.71h-1.83v-6.9h-2.48v-1.6h6.77v1.6H144.1Z" transform="translate(-15.97 -9.46)"/><path class="fa1e1149-c995-4b75-9330-b76087bf2503" d="M152.71,73.86a4.3,4.3,0,0,1-3.17-1.24,4.57,4.57,0,0,1,0-6.3,4.3,4.3,0,0,1,3.17-1.24,4.36,4.36,0,0,1,3.19,1.23,4.59,4.59,0,0,1,0,6.32A4.36,4.36,0,0,1,152.71,73.86Zm-1.86-2.39a2.62,2.62,0,0,0,3.73,0,3.17,3.17,0,0,0,0-4,2.6,2.6,0,0,0-3.73,0,3.17,3.17,0,0,0,0,4Z" transform="translate(-15.97 -9.46)"/><path class="fa1e1149-c995-4b75-9330-b76087bf2503" d="M166.39,72.9a4.73,4.73,0,0,1-5.71,0,3.45,3.45,0,0,1-1-2.58v-5.1h1.83v5a2,2,0,0,0,.52,1.46,2,2,0,0,0,1.48.54,1.93,1.93,0,0,0,1.47-.54,2.06,2.06,0,0,0,.51-1.46v-5h1.85v5.09A3.47,3.47,0,0,1,166.39,72.9Z" transform="translate(-15.97 -9.46)"/><path class="fa1e1149-c995-4b75-9330-b76087bf2503" d="M177.18,73.71h-2.07l-1.67-3h-1.32v3h-1.81v-8.5h4a2.82,2.82,0,0,1,2.08.77,2.64,2.64,0,0,1,.77,2,2.54,2.54,0,0,1-.54,1.69,2.34,2.34,0,0,1-1.32.83ZM174,69.09a1.33,1.33,0,0,0,.92-.31,1.14,1.14,0,0,0,0-1.66,1.33,1.33,0,0,0-.92-.31h-1.89V69.1H174Z" transform="translate(-15.97 -9.46)"/><path class="bd57105c-9de4-491f-bd77-53fd299020f4" d="M202.2,38V44.6H213V38Z" transform="translate(-15.97 -9.46)"/><path class="bd57105c-9de4-491f-bd77-53fd299020f4" d="M40,33.27A11.15,11.15,0,0,0,51.16,44.6h6.12A15.9,15.9,0,1,1,43.2,21.3c.27,0,.54,0,.81,0H65.69A27.24,27.24,0,0,0,19.16,49.49C26.75,66,42,78.71,43.21,79.74c1.26-1,16.45-13.76,24.05-30.25a28,28,0,0,0,2-5.44c1.41-5.46-.12-10.79-5.76-10.79Z" transform="translate(-15.97 -9.46)"/><path class="fa1e1149-c995-4b75-9330-b76087bf2503" d="M69.07,44.6H57.28v0c4.09,5.73,4.09,12.43-3.62,24.89L58,64.38a76.39,76.39,0,0,0,9.29-14.89A27.58,27.58,0,0,0,69.07,44.6Z" transform="translate(-15.97 -9.46)"/></svg>