<svg id="Layer_1" data-name="Layer 1" xmlns="http://www.w3.org/2000/svg" viewBox="0 0 280.28 453.69"><defs><style>.cls-1{fill:#f3f3f3;}.cls-2{fill:#dfdfdf;}</style></defs><path class="cls-1" d="M169.09,120.91a46.35,46.35,0,0,1-32.37,0A34.89,34.89,0,0,0,90.43,145.6a51.19,51.19,0,0,0-1.31,11.55v16a10.14,10.14,0,0,0,13.81,9.45c31.33-12.24,68.6-12.25,100,0a10.14,10.14,0,0,0,13.81-9.45v-16a51,51,0,0,0-1.37-11.77A34.87,34.87,0,0,0,169.09,120.91Z" transform="translate(-12.62 -8.5)"/><path class="cls-1" d="M194.38,49.72a45.14,45.14,0,0,0-83.12.23h0a3.64,3.64,0,0,0-.25,1.79c.45,3.9,1.53,4.82,1.53,7.94V79.91a11.55,11.55,0,0,1-.49,3.32,5.76,5.76,0,0,0,.36,4.18A45.14,45.14,0,0,0,188.63,95a117,117,0,0,1-16.72,1.29,8,8,0,0,1-6.6,3.45h-14.4a8,8,0,1,1-.06-16.06h14.46a8,8,0,0,1,6.58,3.41,100.07,100.07,0,0,0,16.42-1.38A5.77,5.77,0,0,0,193,80V59.69A11.58,11.58,0,0,1,194,55a21.55,21.55,0,0,0,.63-3.14,4,4,0,0,0-.28-2.08Z" transform="translate(-12.62 -8.5)"/><path class="cls-1" d="M213.62,53.07a24.88,24.88,0,0,1-6.67-9C198,23.47,177.45,8.5,153.24,8.5a61.21,61.21,0,0,0-12.18,1.25A58.73,58.73,0,0,0,99,43.84,25.38,25.38,0,0,1,92,53.06,8.67,8.67,0,0,0,89,59.69V79.91a8.67,8.67,0,0,0,8.67,8.67H101a8.67,8.67,0,0,0,8.67-8.67V59.69a8.73,8.73,0,0,0-.42-2.67,25.11,25.11,0,0,1,5.13-24.66A52.07,52.07,0,0,1,191.19,32,25.11,25.11,0,0,1,196.43,57a8.64,8.64,0,0,0-.43,2.71c0,21.82,0,20.46,0,21.08A8.63,8.63,0,0,0,198.46,86c-8.49,3.4-19.06,4.06-28.32,4.1a5,5,0,0,0-4.78-3.43H151a5,5,0,1,0-.07,10.08h14.46a5,5,0,0,0,4.78-3.43c10.52,0,22.17-.86,31.57-5.22,1.76.64,2.79.52,6.32.52a8.67,8.67,0,0,0,8.67-8.67V59.69A8.64,8.64,0,0,0,213.62,53.07Z" transform="translate(-12.62 -8.5)"/><path class="cls-1" d="M29.93,237.17c7.22,0,12.19,5.34,12.19,12.52s-5,12.53-12.19,12.53-12.2-5.34-12.2-12.53S22.7,237.17,29.93,237.17Zm0,3.23c-5.2,0-8.46,4-8.46,9.29s3.26,9.3,8.46,9.3,8.45-4,8.45-9.3S35,240.4,29.93,240.4Z" transform="translate(-12.62 -8.5)"/><path class="cls-1" d="M55.89,237.57h10.2c5,0,7.73,3.41,7.73,7.44s-2.79,7.44-7.73,7.44H59.52v9.33H55.89Zm9.73,3.19h-6.1v8.5h6.1a4.25,4.25,0,1,0,0-8.5Z" transform="translate(-12.62 -8.5)"/><path class="cls-1" d="M86.93,237.57h16.26v3.19H90.56v7.08h12.38V251H90.56v7.55h12.63v3.19H86.93Z" transform="translate(-12.62 -8.5)"/><path class="cls-1" d="M125.27,252.45h-4.54v9.33H117.1V237.57h10.2c4.61,0,7.77,3,7.77,7.44a6.75,6.75,0,0,1-6,7.08l6.2,9.69H131Zm1.56-11.69h-6.1v8.5h6.1a4.26,4.26,0,1,0,0-8.5Z" transform="translate(-12.62 -8.5)"/><path class="cls-1" d="M164.23,256.77H152.36l-2,5h-4L156,237.57h4.54l9.62,24.21h-4Zm-10.82-3.23h9.76l-4.9-12.81Z" transform="translate(-12.62 -8.5)"/><path class="cls-1" d="M188.37,240.76h-7.51v-3.19h18.62v3.19H192v21h-3.63Z" transform="translate(-12.62 -8.5)"/><path class="cls-1" d="M212.63,237.57h3.63v24.21h-3.63Z" transform="translate(-12.62 -8.5)"/><path class="cls-1" d="M234.67,243.2v18.58H231V237.57h3.74L248,255.72V237.57h3.63v24.21h-3.52Z" transform="translate(-12.62 -8.5)"/><path class="cls-1" d="M277.87,237.17a11.37,11.37,0,0,1,9.58,4.79l-2.94,1.71a8.35,8.35,0,0,0-6.64-3.27c-5.05,0-8.82,3.85-8.82,9.29s3.77,9.33,8.82,9.33a9.41,9.41,0,0,0,6.14-2.39v-4.36h-7.77v-3.19h11.4V258a12.9,12.9,0,0,1-9.77,4.28,12.54,12.54,0,1,1,0-25.08Z" transform="translate(-12.62 -8.5)"/><path class="cls-2" d="M85.7,309.41H70.89v12h-4V294.61h4v11.23H85.7V294.61h4v26.76h-4Z" transform="translate(-12.62 -8.5)"/><path class="cls-2" d="M118.36,294.16c8,0,13.49,5.9,13.49,13.85s-5.5,13.84-13.49,13.84S104.88,316,104.88,308,110.38,294.16,118.36,294.16Zm0,3.58c-5.74,0-9.35,4.37-9.35,10.27s3.61,10.27,9.35,10.27,9.35-4.41,9.35-10.27S124,297.74,118.36,297.74Z" transform="translate(-12.62 -8.5)"/><path class="cls-2" d="M147.05,294.61h4v16.17c0,4.57,2.53,7.5,7.23,7.5s7.18-2.93,7.18-7.5V294.61h4.06v16.25c0,6.66-3.74,11-11.24,11s-11.28-4.37-11.28-11Z" transform="translate(-12.62 -8.5)"/><path class="cls-2" d="M194.92,311.06h-5v10.31h-4V294.61h11.28c5.1,0,8.59,3.29,8.59,8.22a7.47,7.47,0,0,1-6.66,7.83L206,321.37H201.3Zm1.73-12.92h-6.74v9.39h6.74a4.64,4.64,0,0,0,5-4.7C201.63,300,199.54,298.14,196.65,298.14Z" transform="translate(-12.62 -8.5)"/><path class="cls-2" d="M221.69,314.51a11.25,11.25,0,0,0,8.42,3.77c4.34,0,5.86-2.2,5.86-4.13,0-2.81-3.05-3.61-6.46-4.49-4.29-1.13-9.27-2.37-9.27-7.83,0-4.41,3.89-7.63,9.47-7.63a13.09,13.09,0,0,1,9.75,3.74l-2.32,3a10.44,10.44,0,0,0-7.75-3.13c-3,0-5,1.52-5,3.77,0,2.41,2.88,3.17,6.22,4,4.37,1.17,9.47,2.53,9.47,8.23,0,4.17-2.89,8.06-10.12,8.06-4.77,0-8.26-1.72-10.55-4.25Z" transform="translate(-12.62 -8.5)"/><path class="cls-2" d="M16.76,390.5a8.09,8.09,0,0,0,6.31,2.67c5.56,0,8.09-5.06,8.09-10.08v-.92a10.62,10.62,0,0,1-8.23,4.33c-5.52,0-10.31-3.41-10.31-9.94,0-5.66,4.47-10.31,11.32-10.31,9,0,12.65,7.32,12.65,15.87C36.59,391,31.94,398,23.07,398a12.05,12.05,0,0,1-8.79-3.4ZM24.22,371c-4,0-6.12,2.9-6.12,5.33,0,3.78,2.94,5.48,6.25,5.48a8.29,8.29,0,0,0,6.72-3.59C30.79,375,29,371,24.22,371Z" transform="translate(-12.62 -8.5)"/><path class="cls-2" d="M44.13,374.9a3.22,3.22,0,1,1-3.22,3.22A3.26,3.26,0,0,1,44.13,374.9Zm0,16.61a3.22,3.22,0,1,1-3.22,3.22A3.26,3.26,0,0,1,44.13,391.51Z" transform="translate(-12.62 -8.5)"/><path class="cls-2" d="M64,366.3c8.6,0,12.28,8.1,12.28,15.82S72.56,398,64,398s-12.28-8.15-12.28-15.88S55.36,366.3,64,366.3Zm0,4.78c-5,0-6.81,5.2-6.81,11S59,393.21,64,393.21s6.81-5.24,6.81-11.09S69,371.08,64,371.08Z" transform="translate(-12.62 -8.5)"/><path class="cls-2" d="M92.3,366.3c8.6,0,12.28,8.1,12.28,15.82S100.9,398,92.3,398,80,389.85,80,382.12,83.69,366.3,92.3,366.3Zm0,4.78c-5,0-6.81,5.2-6.81,11s1.79,11.09,6.81,11.09,6.81-5.24,6.81-11.09S97.31,371.08,92.3,371.08Z" transform="translate(-12.62 -8.5)"/><path class="cls-2" d="M122.38,392.29V379.46H118.7v-4.24h3.68v-6.07h4.83v6.07h4.51v4.24h-4.51V391.1c0,1.51.73,2.62,2.11,2.62a3.16,3.16,0,0,0,2.17-.78l1.15,3.63a6.38,6.38,0,0,1-4.56,1.43C124.36,398,122.38,396,122.38,392.29Z" transform="translate(-12.62 -8.5)"/><path class="cls-2" d="M134.7,386.31c0-6.35,4.38-11.64,11.41-11.64s11.46,5.29,11.46,11.64S153.24,398,146.11,398,134.7,392.71,134.7,386.31Zm17.86,0c0-3.91-2.31-7.36-6.45-7.36s-6.39,3.45-6.39,7.36,2.3,7.41,6.39,7.41S152.56,390.27,152.56,386.31Z" transform="translate(-12.62 -8.5)"/><path class="cls-2" d="M173.44,393.21c11.91-9,16.56-13,16.56-17.43,0-3.22-2.76-4.7-5.57-4.7a10.67,10.67,0,0,0-8.28,3.68L173,371.22a14.74,14.74,0,0,1,11.32-4.92c5.93,0,11.13,3.36,11.13,9.48,0,5.65-5.2,10.72-13.43,16.93h13.62v4.73H173.44Z" transform="translate(-12.62 -8.5)"/><path class="cls-2" d="M212.68,366.3c8.6,0,12.28,8.1,12.28,15.82S221.28,398,212.68,398s-12.29-8.15-12.29-15.88S204.07,366.3,212.68,366.3Zm0,4.78c-5,0-6.81,5.2-6.81,11s1.79,11.09,6.81,11.09,6.8-5.24,6.8-11.09S217.69,371.08,212.68,371.08Z" transform="translate(-12.62 -8.5)"/><path class="cls-2" d="M232.45,374.9a3.22,3.22,0,1,1-3.22,3.22A3.26,3.26,0,0,1,232.45,374.9Zm0,16.61a3.22,3.22,0,1,1-3.22,3.22A3.26,3.26,0,0,1,232.45,391.51Z" transform="translate(-12.62 -8.5)"/><path class="cls-2" d="M252.28,366.3c8.6,0,12.28,8.1,12.28,15.82S260.88,398,252.28,398,240,389.85,240,382.12,243.68,366.3,252.28,366.3Zm0,4.78c-5,0-6.81,5.2-6.81,11s1.8,11.09,6.81,11.09,6.81-5.24,6.81-11.09S257.3,371.08,252.28,371.08Z" transform="translate(-12.62 -8.5)"/><path class="cls-2" d="M280.62,366.3c8.6,0,12.28,8.1,12.28,15.82S289.22,398,280.62,398s-12.29-8.15-12.29-15.88S272,366.3,280.62,366.3Zm0,4.78c-5,0-6.81,5.2-6.81,11s1.79,11.09,6.81,11.09,6.81-5.24,6.81-11.09S285.63,371.08,280.62,371.08Z" transform="translate(-12.62 -8.5)"/><path class="cls-2" d="M109.45,453.69a11.44,11.44,0,0,0,8.51,3.72c4.05,0,6.39-1.84,6.39-4.69,0-3-2.43-4.32-6.8-4.32-1.29,0-3.09,0-3.55,0v-4.83c.56.05,2.35.05,3.55.05,3.58,0,6.3-1.25,6.3-4.05s-2.76-4.33-6.21-4.33a10.8,10.8,0,0,0-7.92,3.41L107,435.33a14.23,14.23,0,0,1,11.18-4.83c6.63,0,11.09,3.13,11.09,8.28,0,4.09-3.5,6.49-6.67,7,3,.28,7.13,2.71,7.13,7.45,0,5.2-4.46,8.93-11.55,8.93-5.47,0-9.52-2.21-11.59-5Z" transform="translate(-12.62 -8.5)"/><path class="cls-2" d="M147.26,430.5a12.31,12.31,0,0,1,8.84,3.4l-2.53,4.1a7.91,7.91,0,0,0-6.31-2.72c-5.11,0-8.1,4.74-8.1,10.13a4.85,4.85,0,0,0,.05.87,10.46,10.46,0,0,1,8.24-4.28c5.52,0,10.25,3.36,10.25,9.89,0,5.71-4.46,10.31-11.31,10.31-9,0-12.65-7.32-12.65-15.83C133.74,437.49,138.38,430.5,147.26,430.5ZM146,446.6a8.39,8.39,0,0,0-6.71,3.64c.32,3.31,2.11,7.17,6.85,7.17,4,0,6.17-2.85,6.17-5.33C152.28,448.3,149.33,446.6,146,446.6Z" transform="translate(-12.62 -8.5)"/><path class="cls-2" d="M165.15,453.78a10.61,10.61,0,0,0,8.29,3.63c3.86,0,6.3-2.39,6.3-5.38,0-3.31-2.39-5.47-6.17-5.47a9.21,9.21,0,0,0-6.71,2.66l-3.82-1.1V431h20.1v4.74H168.42v8.88a10,10,0,0,1,7-2.67,9.51,9.51,0,0,1,9.8,9.89c0,6.39-4.83,10.4-11.69,10.4-5.29,0-8.92-1.8-11.41-4.74Z" transform="translate(-12.62 -8.5)"/></svg>