<svg id="Layer_1" data-name="Layer 1" xmlns="http://www.w3.org/2000/svg" xmlns:xlink="http://www.w3.org/1999/xlink" viewBox="0 0 914 105.26"><defs><style>.cls-1{fill:none;}.cls-2,.cls-3,.cls-7{fill:#f3f3f3;}.cls-3,.cls-5,.cls-6{fill-rule:evenodd;}.cls-4{clip-path:url(#clip-path);}.cls-5{fill:#fff;}.cls-6{fill:#e5e5e5;}.cls-7{stroke:#f3f3f3;stroke-miterlimit:10;stroke-width:2px;}</style><clipPath id="clip-path" transform="translate(-5 -36.87)"><rect class="cls-1" x="419.96" y="90.13" width="66.84" height="52"/></clipPath></defs><path class="cls-2" d="M568.63,91H555.37a1.85,1.85,0,0,0-1.82,1.56l-5.37,34a1,1,0,0,0,0,.17,1.11,1.11,0,0,0,1.11,1.11h6.33a1.86,1.86,0,0,0,1.82-1.56l1.45-9.17a1.84,1.84,0,0,1,1.82-1.56h4.2c8.73,0,13.78-4.23,15.09-12.61.6-3.66,0-6.54-1.69-8.56-1.88-2.22-5.23-3.39-9.67-3.39Zm1.53,12.42c-.72,4.76-4.36,4.76-7.87,4.76h-2l1.41-8.88a1.11,1.11,0,0,1,1.09-.94h.92c2.39,0,4.65,0,5.82,1.37a4.38,4.38,0,0,1,.64,3.69Zm38.13-.15h-6.36a1.11,1.11,0,0,0-1.09.93l-.28,1.78-.44-.64c-1.38-2-4.45-2.67-7.51-2.67-7,0-13,5.32-14.18,12.78a12,12,0,0,0,2.37,9.76c1.93,2.28,4.7,3.23,8,3.23a12.16,12.16,0,0,0,8.79-3.64l-.28,1.77a.88.88,0,0,0,0,.17,1.11,1.11,0,0,0,1.11,1.11h5.72a1.86,1.86,0,0,0,1.82-1.56l3.43-21.74a1.07,1.07,0,0,0-1.08-1.28Zm-8.86,12.36a7.08,7.08,0,0,1-7.17,6.07,4.92,4.92,0,0,1-5.26-6.18,7.11,7.11,0,0,1,7.12-6.11,5.38,5.38,0,0,1,4.24,1.73,5.51,5.51,0,0,1,1.07,4.49Zm42.69-12.36h-6.39a1.85,1.85,0,0,0-1.52.81l-8.81,13-3.73-12.46a1.85,1.85,0,0,0-1.77-1.32h-6.27a1.11,1.11,0,0,0-1.11,1.11,1,1,0,0,0,.06.35l7,20.64L613,134.65a1.13,1.13,0,0,0-.2.64,1.1,1.1,0,0,0,1.1,1.1h6.38a1.82,1.82,0,0,0,1.51-.79L643,105a1.11,1.11,0,0,0-.9-1.74Z" transform="translate(-5 -36.87)"/><path class="cls-2" d="M663.25,91H650a1.85,1.85,0,0,0-1.82,1.56l-5.36,34a1,1,0,0,0,0,.17,1.11,1.11,0,0,0,1.1,1.11h6.81a1.3,1.3,0,0,0,1.27-1.09l1.52-9.64a1.85,1.85,0,0,1,1.82-1.56h4.2c8.74,0,13.78-4.23,15.1-12.61.59-3.66,0-6.54-1.69-8.56C671,92.12,667.69,91,663.25,91Zm1.53,12.42c-.72,4.76-4.36,4.76-7.88,4.76h-2l1.41-8.88a1.11,1.11,0,0,1,1.09-.94h.92c2.39,0,4.65,0,5.82,1.37A4.41,4.41,0,0,1,664.78,103.37Zm38.12-.15h-6.35a1.11,1.11,0,0,0-1.09.93l-.28,1.78-.45-.64c-1.37-2-4.44-2.67-7.5-2.67-7,0-13,5.32-14.18,12.78a12,12,0,0,0,2.37,9.76c1.94,2.28,4.7,3.23,8,3.23a12.16,12.16,0,0,0,8.79-3.64l-.28,1.77a.88.88,0,0,0,0,.17A1.11,1.11,0,0,0,693,127.8h5.72a1.85,1.85,0,0,0,1.82-1.56L704,104.5c0-.06,0-.11,0-.17a1.11,1.11,0,0,0-1.11-1.11Zm-8.85,12.36a7.09,7.09,0,0,1-7.17,6.07,4.91,4.91,0,0,1-5.26-6.18,7.11,7.11,0,0,1,7.11-6.11,5.37,5.37,0,0,1,4.24,1.73A5.48,5.48,0,0,1,694.05,115.58Zm16.34-23.7-5.45,34.64a1,1,0,0,0,0,.17,1.11,1.11,0,0,0,1.1,1.11h5.48a1.84,1.84,0,0,0,1.82-1.56l5.37-34a1,1,0,0,0,0-.17,1.11,1.11,0,0,0-1.1-1.11h-6.13A1.11,1.11,0,0,0,710.39,91.88Z" transform="translate(-5 -36.87)"/><path class="cls-3" d="M277.36,108c-.08,6.27,5.58,9.77,9.85,11.85s5.86,3.5,5.84,5.41c0,2.92-3.49,4.21-6.74,4.26a23.55,23.55,0,0,1-11.56-2.75l-2,9.54a34,34,0,0,0,12.52,2.31c11.83,0,19.57-5.84,19.61-14.89,0-11.49-15.89-12.12-15.78-17.26,0-1.55,1.52-3.22,4.78-3.64a21.27,21.27,0,0,1,11.1,2l2-9.23a30.14,30.14,0,0,0-10.54-1.93c-11.13,0-19,5.91-19,14.38m48.58-13.59a5.15,5.15,0,0,0-4.8,3.2L304.25,138h11.82l2.35-6.5h14.44l1.36,6.5h10.42l-9.09-43.53Zm1.65,11.76L331,122.53h-9.34ZM263,94.42,253.72,138H265l9.31-43.53Zm-16.66,0-11.72,29.63-4.74-25.19a5.25,5.25,0,0,0-5.19-4.44H205.56l-.27,1.27a47,47,0,0,1,11.11,3.7c1.66.9,2.13,1.69,2.67,3.82l9,34.74H240L258.2,94.42Z" transform="translate(-5 -36.87)"/><g class="cls-4"><path class="cls-5" d="M485.48,141.42v.14h.12l.07,0a.06.06,0,0,0,0-.1l-.07,0Zm.12-.09a.19.19,0,0,1,.15,0,.14.14,0,0,1,.06.12.15.15,0,0,1,0,.1.21.21,0,0,1-.12,0l.16.19h-.13l-.15-.19h0v.19h-.11v-.5h.23Zm0,.68a.51.51,0,0,0,.17,0l.13-.1a.3.3,0,0,0,.09-.13.47.47,0,0,0,0-.33.3.3,0,0,0-.09-.13.38.38,0,0,0-.13-.09.38.38,0,0,0-.34,0,.38.38,0,0,0-.13.09.41.41,0,0,0-.09.46.42.42,0,0,0,.09.14.38.38,0,0,0,.13.09.51.51,0,0,0,.17,0m0-1a.55.55,0,0,1,.39.16.57.57,0,0,1,.12.18.51.51,0,0,1,0,.42.61.61,0,0,1-.29.29.54.54,0,0,1-.22,0,.57.57,0,0,1-.22,0,.94.94,0,0,1-.18-.12.78.78,0,0,1-.11-.18.51.51,0,0,1,0-.42.61.61,0,0,1,.29-.29.57.57,0,0,1,.22,0m-51.17-1.95a1.66,1.66,0,1,1,1.66,1.76,1.65,1.65,0,0,1-1.66-1.76m4.44,0v-2.74h-1.19V137a2.08,2.08,0,0,0-1.73-.8,2.88,2.88,0,0,0,0,5.76,2.08,2.08,0,0,0,1.73-.8v.66h1.19v-2.74Zm40.3,0a1.66,1.66,0,1,1,1.67,1.76,1.65,1.65,0,0,1-1.67-1.76m4.44,0v-5h-1.19V137a2.08,2.08,0,0,0-1.73-.8,2.88,2.88,0,0,0,0,5.76,2.08,2.08,0,0,0,1.73-.8v.66h1.19Zm-29.94-1.81a1.36,1.36,0,0,1,1.39,1.33h-2.84a1.4,1.4,0,0,1,1.45-1.33m0-1.07a2.68,2.68,0,0,0-2.73,2.88,2.71,2.71,0,0,0,2.81,2.88,3.37,3.37,0,0,0,2.25-.77l-.59-.88a2.64,2.64,0,0,1-1.59.57,1.52,1.52,0,0,1-1.64-1.34h4.07c0-.15,0-.3,0-.46a2.63,2.63,0,0,0-2.6-2.88m14.4,2.88a1.66,1.66,0,1,1,1.66,1.75,1.64,1.64,0,0,1-1.66-1.75m4.44,0v-2.74h-1.19V137a2.1,2.1,0,0,0-1.74-.8,2.88,2.88,0,0,0,0,5.76,2.1,2.1,0,0,0,1.74-.8v.66h1.19v-2.74Zm-11.18,0a2.77,2.77,0,0,0,2.93,2.88,2.87,2.87,0,0,0,2-.66l-.57-1a2.43,2.43,0,0,1-1.44.49,1.76,1.76,0,0,1,0-3.51,2.38,2.38,0,0,1,1.44.5l.57-1a2.88,2.88,0,0,0-2-.65,2.77,2.77,0,0,0-2.93,2.88m15.38-2.88a1.62,1.62,0,0,0-1.45.8v-.66h-1.18v5.48h1.19v-3.07c0-.91.39-1.42,1.17-1.42a2.12,2.12,0,0,1,.75.14l.37-1.12a2.42,2.42,0,0,0-.85-.15m-32,.57a4.12,4.12,0,0,0-2.24-.57c-1.39,0-2.28.66-2.28,1.75,0,.9.66,1.45,1.89,1.62l.56.08c.66.09,1,.27,1,.58s-.44.66-1.25.66a2.93,2.93,0,0,1-1.83-.57l-.56.93a4,4,0,0,0,2.38.71c1.58,0,2.5-.75,2.5-1.79s-.72-1.47-1.92-1.64l-.56-.08c-.52-.07-.93-.17-.93-.54s.39-.64,1-.64a3.49,3.49,0,0,1,1.71.47l.52-1Zm15.39-.57a1.62,1.62,0,0,0-1.45.8v-.66H457.5v5.48h1.19v-3.07c0-.91.39-1.42,1.17-1.42a2.12,2.12,0,0,1,.75.14l.37-1.12a2.42,2.42,0,0,0-.85-.15m-10.18.14H448v-1.67h-1.21v1.67h-1.11v1.09h1.11v2.5c0,1.27.5,2,1.91,2a2.74,2.74,0,0,0,1.49-.43l-.34-1a2.19,2.19,0,0,1-1.06.31c-.6,0-.79-.36-.79-.91v-2.48H450Zm-17.83,5.48v-3.44a2,2,0,0,0-2.16-2.18,2.14,2.14,0,0,0-1.93,1,2,2,0,0,0-1.81-1,1.82,1.82,0,0,0-1.61.81v-.67h-1.19v5.48h1.2v-3a1.29,1.29,0,0,1,1.35-1.46c.79,0,1.19.52,1.19,1.45v3.05h1.2v-3a1.3,1.3,0,0,1,1.35-1.46c.81,0,1.2.52,1.2,1.45v3.05Z" transform="translate(-5 -36.87)"/><path class="cls-5" d="M486.16,123.59v-.8H486l-.24.55-.24-.55h-.21v.8h.15V123l.22.52h.16L486,123v.61Zm-1.33,0v-.67h.27v-.13h-.68v.13h.27v.67Z" transform="translate(-5 -36.87)"/><path class="cls-6" d="M462.42,127H444.34V94.54h18.08Z" transform="translate(-5 -36.87)"/><path class="cls-3" d="M445.49,110.79a20.66,20.66,0,0,1,7.89-16.25,20.67,20.67,0,1,0,0,32.49,20.63,20.63,0,0,1-7.89-16.24" transform="translate(-5 -36.87)"/><path class="cls-5" d="M486.8,110.79A20.65,20.65,0,0,1,453.38,127a20.67,20.67,0,0,0,0-32.49,20.66,20.66,0,0,1,33.42,16.25" transform="translate(-5 -36.87)"/></g><line class="cls-7" y1="1" x2="914" y2="1"/></svg>