<svg id="Layer_1" data-name="Layer 1" xmlns="http://www.w3.org/2000/svg" viewBox="0 0 322.32 51.25"><defs><style>.cls-1,.cls-2{fill:#f3f3f3;}.cls-2{fill-rule:evenodd;}</style></defs><path class="cls-1" d="M56.23,21.7a2.05,2.05,0,1,0,0-4.1H47.92l-5.66-5.32h0a3.72,3.72,0,0,0-.94-1,4.2,4.2,0,0,0-2.57-.87,4.15,4.15,0,0,0-3.11,1.37L26.27,22.4a3.66,3.66,0,0,0-.87,3.09h0a2.86,2.86,0,0,0,.51,1.28h0a4.05,4.05,0,0,0,.88,1,4.81,4.81,0,0,0,.82.49h0v0l7.89,6.13V40.9a2.57,2.57,0,0,0,5.14,0V33.11a1.51,1.51,0,0,0,0-.3h0a2.71,2.71,0,0,0-1-2.47l-5.83-4.53,7.55-8.59,4.79,4.51H56.23Z" transform="translate(-8.39 -1.26)"/><path class="cls-1" d="M46,21.9H56.23a2.25,2.25,0,1,0,0-4.5H48l-5.57-5.24a3.9,3.9,0,0,0-1-1.09,4.43,4.43,0,0,0-2.71-.92,4.32,4.32,0,0,0-3.27,1.46L26.1,22.27a3.81,3.81,0,0,0-.9,3.25,2.81,2.81,0,0,0,.54,1.37,4.24,4.24,0,0,0,.93,1,4.3,4.3,0,0,0,.85.52l7.8,6.06V40.9a2.79,2.79,0,0,0,5.57,0V33.11c0-.1,0-.21,0-.31a2.92,2.92,0,0,0-1.13-2.64l-5.67-4.4,7.27-8.27ZM33.77,25.78l5.83,4.53a2.74,2.74,0,0,1,1.06,2.47h0c0,.11,0,.2,0,.3v7.8a2.57,2.57,0,0,1-5.14,0V34.39l-7.89-6.14h0a3.5,3.5,0,0,1-.81-.49,3.86,3.86,0,0,1-.89-1h0a2.65,2.65,0,0,1-.51-1.28h0a3.65,3.65,0,0,1,.86-3.1l9.36-10.66a4.22,4.22,0,0,1,5.68-.5,3.86,3.86,0,0,1,.94,1h0l5.66,5.32h8.31a2.05,2.05,0,1,1,0,4.1H46.11l-4.79-4.51Z" transform="translate(-8.39 -1.26)"/><path class="cls-1" d="M42.76,9.44a4.4,4.4,0,0,0,2.69.92,4.35,4.35,0,0,0,3.26-1.44,3.81,3.81,0,0,0-.57-5.59,4.38,4.38,0,0,0-2.69-.92A4.33,4.33,0,0,0,42.2,3.85,3.82,3.82,0,0,0,42.76,9.44Z" transform="translate(-8.39 -1.26)"/><path class="cls-1" d="M42.63,9.59a4.57,4.57,0,0,0,2.82.95A4.51,4.51,0,0,0,48.86,9a4,4,0,0,0-.59-5.85,4.58,4.58,0,0,0-2.82-1,4.49,4.49,0,0,0-3.4,1.51A4,4,0,0,0,42.63,9.59Zm2.83-7.18a4.39,4.39,0,0,1,2.69.91,3.81,3.81,0,0,1,.56,5.59,4.29,4.29,0,0,1-3.25,1.44,4.37,4.37,0,0,1-2.69-.91,3.82,3.82,0,0,1-.57-5.59A4.33,4.33,0,0,1,45.46,2.41Z" transform="translate(-8.39 -1.26)"/><path class="cls-1" d="M28.05,31.7a12,12,0,0,0-16.29,0,10.39,10.39,0,0,0,0,15.32,12,12,0,0,0,16.29,0,10.37,10.37,0,0,0,0-15.32ZM19.9,47.09a8,8,0,0,1-8.21-7.73v-.2a7.92,7.92,0,0,1,7-7.44,8.45,8.45,0,0,1,1.25-.09,8.66,8.66,0,0,1,1.25.09,7.92,7.92,0,0,1,7,7.44c0,.07,0,.13,0,.2A8,8,0,0,1,19.9,47.09Z" transform="translate(-8.39 -1.26)"/><path class="cls-1" d="M62.67,31.7a12,12,0,0,0-16.29,0,10.39,10.39,0,0,0,0,15.32,12,12,0,0,0,16.29,0,10.37,10.37,0,0,0,0-15.32ZM54.53,47.09a8,8,0,0,1-8.22-7.73,1.34,1.34,0,0,1,0-.2,7.92,7.92,0,0,1,7-7.44,8.66,8.66,0,0,1,1.25-.09,8.45,8.45,0,0,1,1.25.09,7.92,7.92,0,0,1,7,7.44v.2A8,8,0,0,1,54.53,47.09Z" transform="translate(-8.39 -1.26)"/><path class="cls-1" d="M309.64,2.72a1.45,1.45,0,0,1,1.48-1.35,1.6,1.6,0,0,1,1.63,1.35V15.45a6.58,6.58,0,0,1-4.07,6v25a3,3,0,0,1-6,0v-25a6.58,6.58,0,0,1-4.07-6V2.72a1.44,1.44,0,0,1,2.87,0V13.64a1.32,1.32,0,0,0,2.63,0V2.72a1.44,1.44,0,0,1,2.88,0V13.64a1.32,1.32,0,0,0,2.63,0V2.72ZM330.71,6.1a5.16,5.16,0,0,0-10.3,0V25.69a2.89,2.89,0,0,0,3,2.82h1.31V46.42a3,3,0,0,0,6,0V6.1Z" transform="translate(-8.39 -1.26)"/><path class="cls-2" d="M141.68,4.54H223a6.12,6.12,0,0,0,6.3,5.93v1.75a1,1,0,1,0,0,2.06v1.33a1,1,0,1,0,0,2.06V19a1,1,0,1,0,0,2.06V22.4a1,1,0,1,0,0,2.06v1.33a1,1,0,1,0,0,2.07v1.33a1,1,0,1,0,0,2.06v1.33a1,1,0,1,0,0,2.06V36a1,1,0,1,0,0,2.06v1.33a1,1,0,1,0,0,2.06v1.33a1,1,0,1,0,0,2.07v1.74A6.13,6.13,0,0,0,223,52.5H141.68a6.13,6.13,0,0,0-6.3-5.93V44.83a1,1,0,1,0,0-2.07V41.43a1,1,0,1,0,0-2.06V38a1,1,0,1,0,0-2.06V34.64a1,1,0,1,0,0-2.06V31.25a1,1,0,1,0,0-2.06V27.86a1,1,0,1,0,0-2.07V24.46a1,1,0,1,0,0-2.06V21.07a1,1,0,1,0,0-2.06V17.67a1,1,0,1,0,0-2.06V14.28a1,1,0,1,0,0-2.06V10.47a6.12,6.12,0,0,0,6.3-5.93Zm23.11,35.79.63,1.83h2l-1.65,1.13.63,1.82L164.79,44l-1.65,1.13.64-1.82-1.65-1.13h2l.62-1.83Zm35.09,0,.63,1.83h2l-1.65,1.13.63,1.82L199.88,44l-1.65,1.13.64-1.82-1.66-1.13h2l.63-1.83Zm-8.77,0,.63,1.83h2l-1.66,1.13.64,1.82L191.11,44l-1.65,1.13.63-1.82-1.65-1.13h2l.63-1.83Zm-8.77,0,.63,1.83h2l-1.66,1.13L184,45.1,182.34,44l-1.65,1.13.63-1.82-1.65-1.13h2l.63-1.83Zm-8.77,0,.62,1.83h2.05l-1.66,1.13.64,1.82L173.57,44l-1.65,1.13.63-1.82-1.65-1.13h2l.63-1.83Zm-8.78-28.39.63,1.83h2l-1.65,1.13.63,1.83-1.65-1.14-1.65,1.14.64-1.83-1.65-1.13h2l.62-1.83Zm35.09,0,.63,1.83h2l-1.65,1.13.63,1.83-1.65-1.14-1.65,1.14.64-1.83-1.66-1.13h2l.63-1.83Zm-8.77,0,.63,1.83h2l-1.66,1.13.64,1.83-1.65-1.14-1.65,1.14.63-1.83-1.65-1.13h2l.63-1.83Zm-8.77,0,.63,1.83h2l-1.66,1.13.64,1.83-1.65-1.14-1.65,1.14.63-1.83-1.65-1.13h2l.63-1.83Zm-8.77,0,.62,1.83h2.05l-1.66,1.13.64,1.83-1.65-1.14-1.65,1.14.63-1.83-1.65-1.13h2l.63-1.83ZM145.35,9a10.36,10.36,0,0,1-1.72,2.44,11.07,11.07,0,0,1-2.42,1.92V43.68a11.07,11.07,0,0,1,2.42,1.92A10.36,10.36,0,0,1,145.35,48h5.71V9Zm-2.73,1.59a9,9,0,0,0,1.67-2.47l.18-.39h75.74l.17.39a9,9,0,0,0,1.68,2.47,9.41,9.41,0,0,0,2.42,1.86l.34.18V44.41l-.34.18a9.41,9.41,0,0,0-2.42,1.86,9.05,9.05,0,0,0-1.68,2.48l-.17.39H144.47l-.18-.39a9,9,0,0,0-1.67-2.48,9.63,9.63,0,0,0-2.43-1.86l-.33-.18V12.63l.33-.18a9.63,9.63,0,0,0,2.43-1.86ZM152.41,48h59.85V9H152.41V48Zm61.21,0h5.71a10.36,10.36,0,0,1,1.72-2.44,10.84,10.84,0,0,1,2.42-1.92V13.36a10.84,10.84,0,0,1-2.42-1.92A10.36,10.36,0,0,1,219.33,9h-5.71V48ZM156,22.5h3V37h2.81V22.5h2.95V20.09H156V22.5ZM166,37h2.81V20.09H166V37Zm10.37-6.28v2.4a2.13,2.13,0,0,1-.18,1,1.14,1.14,0,0,1-.51.53,1.66,1.66,0,0,1-.77.15,1.73,1.73,0,0,1-.78-.15,1.12,1.12,0,0,1-.5-.53,2.13,2.13,0,0,1-.18-1V24a1.75,1.75,0,0,1,.39-1.28,1.41,1.41,0,0,1,1.07-.38,1.38,1.38,0,0,1,1.06.38,1.79,1.79,0,0,1,.4,1.28v1.81H179V24.14a5.15,5.15,0,0,0-.47-2.3,3.27,3.27,0,0,0-1.41-1.44,5.63,5.63,0,0,0-4.64,0,3.2,3.2,0,0,0-1.4,1.44,5,5,0,0,0-.48,2.3v8.77a5,5,0,0,0,.48,2.29,3.27,3.27,0,0,0,1.4,1.45,5.63,5.63,0,0,0,4.64,0,3.35,3.35,0,0,0,1.41-1.45,5.14,5.14,0,0,0,.47-2.29V30.67ZM187.15,37H190l-3.91-9.34L190,20.09h-2.81l-3.69,7.35V20.09h-2.82V37h2.82V31.77l.87-1.54L187.15,37Zm7-14.45H199V20.09h-7.69V37H199V34.54h-4.87V29.61H198V27.2h-3.87V22.5Zm5.79,0h2.94V37h2.82V22.5h2.94V20.09h-8.7V22.5Z" transform="translate(-8.39 -1.26)"/></svg>