<svg id="a159dc2e-b9b0-4a83-bf70-d6f26490e828" data-name="Layer 1" xmlns="http://www.w3.org/2000/svg" viewBox="0 0 248.35 32.17"><defs><style>.ada7b0a0-1fca-4e1f-acee-01f7ae868134,.e540d378-0110-488e-9709-d3de225b53ba{fill:#f3f3f3;}.bf91d4d3-0bb9-4300-a009-85109d2575b7{fill:#e84041;}.bddf0d9c-d728-4d3b-979d-c10c8626607f{fill:#fff;stroke:#e84041;}.e540d378-0110-488e-9709-d3de225b53ba{stroke:#f3f3f3;stroke-width:2.5px;}</style></defs><path class="ada7b0a0-1fca-4e1f-acee-01f7ae868134" d="M64.19,27.64v2.61h4.3V27.64Z" transform="translate(-29.47 -12.04)"/><path class="ada7b0a0-1fca-4e1f-acee-01f7ae868134" d="M65.47,28.4h3v5.45A7.72,7.72,0,0,1,66.11,35a9.7,9.7,0,0,1-2.7.4A7.19,7.19,0,0,1,60,34.58a6,6,0,0,1-2.38-2.23,6.55,6.55,0,0,1,0-6.49A6,6,0,0,1,60,23.62a7.46,7.46,0,0,1,3.47-.8,7.73,7.73,0,0,1,3,.57A5.91,5.91,0,0,1,68.77,25l-2.18,2a3.84,3.84,0,0,0-2.94-1.35,3.25,3.25,0,0,0-3.45,3.46,3.61,3.61,0,0,0,.43,1.78,3,3,0,0,0,1.21,1.23,3.59,3.59,0,0,0,1.78.44,4.3,4.3,0,0,0,1.85-.4Z" transform="translate(-29.47 -12.04)"/><path class="ada7b0a0-1fca-4e1f-acee-01f7ae868134" d="M79,23.6a4.26,4.26,0,0,1,0,7.84,6.8,6.8,0,0,1-2.85.55H74.08v3.16H70.66V23.06h5.53A7,7,0,0,1,79,23.6Zm-1.47,5.23a1.59,1.59,0,0,0,.53-1.3,1.63,1.63,0,0,0-.53-1.31A2.38,2.38,0,0,0,76,25.75h-1.9v3.54H76A2.38,2.38,0,0,0,77.57,28.83Z" transform="translate(-29.47 -12.04)"/><path class="ada7b0a0-1fca-4e1f-acee-01f7ae868134" d="M84.79,35a7.12,7.12,0,0,1-2.25-1l1.13-2.52a7.4,7.4,0,0,0,1.88.86,7.07,7.07,0,0,0,2.1.33c1.32,0,2-.33,2-1a.82.82,0,0,0-.56-.77,10.46,10.46,0,0,0-1.8-.52A18.67,18.67,0,0,1,85,29.82a4,4,0,0,1-1.57-1.08,2.91,2.91,0,0,1-.66-2,3.42,3.42,0,0,1,.61-2,4,4,0,0,1,1.8-1.4,7.33,7.33,0,0,1,2.94-.52,10.85,10.85,0,0,1,2.35.26,7.48,7.48,0,0,1,2,.79l-1,2.54a7.05,7.05,0,0,0-3.35-.93,2.84,2.84,0,0,0-1.49.3.89.89,0,0,0-.46.78.77.77,0,0,0,.55.73,9.87,9.87,0,0,0,1.78.5,17.7,17.7,0,0,1,2.28.63,4,4,0,0,1,1.58,1.07,2.89,2.89,0,0,1,.66,2,3.39,3.39,0,0,1-.6,2,4.13,4.13,0,0,1-1.82,1.41,7.31,7.31,0,0,1-2.93.53A10.82,10.82,0,0,1,84.79,35Z" transform="translate(-29.47 -12.04)"/><path class="bf91d4d3-0bb9-4300-a009-85109d2575b7" d="M104.72,28.4h3v5.45A7.72,7.72,0,0,1,105.36,35a9.7,9.7,0,0,1-2.7.4,7.17,7.17,0,0,1-3.42-.81,6,6,0,0,1-2.38-2.23,6.55,6.55,0,0,1,0-6.49,6,6,0,0,1,2.4-2.24,7.46,7.46,0,0,1,3.47-.8,7.73,7.73,0,0,1,3,.57A5.8,5.8,0,0,1,108,25l-2.17,2a3.84,3.84,0,0,0-2.94-1.35,3.25,3.25,0,0,0-3.45,3.46,3.61,3.61,0,0,0,.43,1.78,3,3,0,0,0,1.21,1.23,3.59,3.59,0,0,0,1.78.44,4.34,4.34,0,0,0,1.85-.4V28.4Z" transform="translate(-29.47 -12.04)"/><path class="bf91d4d3-0bb9-4300-a009-85109d2575b7" d="M112.49,25.77h-3.72V23.06H119.6v2.71h-3.7v9.38h-3.42V25.77Z" transform="translate(-29.47 -12.04)"/><path class="ada7b0a0-1fca-4e1f-acee-01f7ae868134" d="M58.49,41.88a1.78,1.78,0,0,1-1.28-.49,1.79,1.79,0,0,1,0-2.52,1.82,1.82,0,0,1,1.28-.48,1.54,1.54,0,0,1,1.39.75l-.59.32a.9.9,0,0,0-.33-.31.85.85,0,0,0-.47-.13,1,1,0,0,0-.76.32,1.19,1.19,0,0,0,0,1.58,1,1,0,0,0,.76.32,1.15,1.15,0,0,0,.41-.08,1,1,0,0,0,.31-.18v-.41h-.89V40h1.61v1.29A1.85,1.85,0,0,1,58.49,41.88Z" transform="translate(-29.47 -12.04)"/><path class="ada7b0a0-1fca-4e1f-acee-01f7ae868134" d="M63.73,41.81h-.82l-.67-1.2h-.52v1.2H61V38.44h1.58a1.14,1.14,0,0,1,.83.3,1.09,1.09,0,0,1,.3.79,1,1,0,0,1-.21.67,1,1,0,0,1-.53.33ZM62.47,40a.57.57,0,0,0,.37-.12.46.46,0,0,0,0-.66.52.52,0,0,0-.37-.13h-.75V40Z" transform="translate(-29.47 -12.04)"/><path class="ada7b0a0-1fca-4e1f-acee-01f7ae868134" d="M67.91,41.81h-.82l-.21-.57H65.43l-.21.57H64.4l1.31-3.37h.9Zm-1.23-1.2-.52-1.45-.53,1.45Z" transform="translate(-29.47 -12.04)"/><path class="ada7b0a0-1fca-4e1f-acee-01f7ae868134" d="M71.74,41.81h-.69l-1.61-2.2v2.2h-.71V38.44h.73L71,40.56V38.44h.71Z" transform="translate(-29.47 -12.04)"/><path class="ada7b0a0-1fca-4e1f-acee-01f7ae868134" d="M74.25,41.81H72.92V38.44h1.33a1.81,1.81,0,0,1,1.29.47,1.74,1.74,0,0,1,0,2.44A1.8,1.8,0,0,1,74.25,41.81Zm0-.63a1,1,0,0,0,.77-.3,1.17,1.17,0,0,0,0-1.51,1,1,0,0,0-.78-.3h-.62v2.11Z" transform="translate(-29.47 -12.04)"/><path class="ada7b0a0-1fca-4e1f-acee-01f7ae868134" d="M80.36,41.81h-.73V39.07h-1v-.63h2.69v.63h-1Z" transform="translate(-29.47 -12.04)"/><path class="ada7b0a0-1fca-4e1f-acee-01f7ae868134" d="M83.78,41.87a1.74,1.74,0,1,1,0-3.48,1.74,1.74,0,0,1,1.27.49,1.67,1.67,0,0,1,.5,1.25,1.71,1.71,0,0,1-.5,1.26A1.78,1.78,0,0,1,83.78,41.87ZM83,40.92a1,1,0,0,0,.74.32,1,1,0,0,0,.74-.32,1.22,1.22,0,0,0,0-1.58,1,1,0,0,0-1.48,0,1.25,1.25,0,0,0,0,1.58Z" transform="translate(-29.47 -12.04)"/><path class="ada7b0a0-1fca-4e1f-acee-01f7ae868134" d="M89.21,41.49a1.5,1.5,0,0,1-1.13.38,1.54,1.54,0,0,1-1.14-.38,1.38,1.38,0,0,1-.38-1v-2h.73v2a.73.73,0,0,0,.79.8.73.73,0,0,0,.58-.22.78.78,0,0,0,.21-.58v-2h.73v2A1.36,1.36,0,0,1,89.21,41.49Z" transform="translate(-29.47 -12.04)"/><path class="ada7b0a0-1fca-4e1f-acee-01f7ae868134" d="M93.5,41.81h-.83L92,40.61h-.52v1.2h-.72V38.44h1.58a1.12,1.12,0,0,1,.82.3,1.06,1.06,0,0,1,.31.79,1,1,0,0,1-.22.67.94.94,0,0,1-.52.33ZM92.24,40a.52.52,0,0,0,.36-.12.44.44,0,0,0,0-.66.48.48,0,0,0-.36-.13h-.75V40Z" transform="translate(-29.47 -12.04)"/><path class="bf91d4d3-0bb9-4300-a009-85109d2575b7" d="M103.44,27.64v2.61h4.3V27.64Z" transform="translate(-29.47 -12.04)"/><path class="bf91d4d3-0bb9-4300-a009-85109d2575b7" d="M39,25.75a4.42,4.42,0,0,0,4.41,4.5h2.44A6.32,6.32,0,1,1,40.28,21h8.93A10.82,10.82,0,0,0,30.73,32.2c3,6.55,9.06,11.6,9.56,12,.5-.41,6.53-5.46,9.55-12A12.29,12.29,0,0,0,50.62,30c.56-2.17,0-4.28-2.29-4.28Z" transform="translate(-29.47 -12.04)"/><path class="ada7b0a0-1fca-4e1f-acee-01f7ae868134" d="M50.56,30.25H45.88v0c1.63,2.27,1.63,4.93-1.44,9.88l1.72-2a30.62,30.62,0,0,0,3.69-5.91A11.51,11.51,0,0,0,50.56,30.25Z" transform="translate(-29.47 -12.04)"/><path class="bf91d4d3-0bb9-4300-a009-85109d2575b7" d="M181.63,28h3.66v6.57A9.39,9.39,0,0,1,182.38,36a11.46,11.46,0,0,1-3.24.5,8.84,8.84,0,0,1-4.16-1,8.3,8.3,0,0,1-2.91-2.66A7,7,0,0,1,171,28.92a7.15,7.15,0,0,1,1.08-3.9A6.91,6.91,0,0,1,175,22.36a8.73,8.73,0,0,1,4.16-1,10.37,10.37,0,0,1,3.66.66,8.4,8.4,0,0,1,2.74,2l-2.49,2.33a4.59,4.59,0,0,0-3.58-1.58,4.07,4.07,0,0,0-3,1.16A4.14,4.14,0,0,0,175.32,29a4.53,4.53,0,0,0,.5,2.16,3.51,3.51,0,0,0,1.41,1.49,4.29,4.29,0,0,0,2.16.5,5.06,5.06,0,0,0,2.24-.5V28Z" transform="translate(-29.47 -12.04)"/><path class="bf91d4d3-0bb9-4300-a009-85109d2575b7" d="M191,24.85h-4.49V21.61h13.05v3.24H195.1v11.3H191l.08-11.3Z" transform="translate(-29.47 -12.04)"/><path class="bf91d4d3-0bb9-4300-a009-85109d2575b7" d="M180.14,27.09v3.16h5.15V27.09Z" transform="translate(-29.47 -12.04)"/><path class="ada7b0a0-1fca-4e1f-acee-01f7ae868134" d="M206.24,21.58h6.81a4.55,4.55,0,0,1,4.9,4.69,4.54,4.54,0,0,1-4.9,4.66h-3.71v5.22h-3.1Zm6.4,2.66h-3.3v4h3.3a2,2,0,1,0,0-4Z" transform="translate(-29.47 -12.04)"/><path class="ada7b0a0-1fca-4e1f-acee-01f7ae868134" d="M219.81,21.58h2.78V36.15h-2.78Z" transform="translate(-29.47 -12.04)"/><path class="ada7b0a0-1fca-4e1f-acee-01f7ae868134" d="M231.68,35.06a4.38,4.38,0,0,1-3.35,1.35,3.51,3.51,0,0,1-3.67-3.49c0-2.47,2-3.37,3.67-3.37a4.29,4.29,0,0,1,3.35,1.29V29.38c0-1.07-.92-1.77-2.32-1.77a4.42,4.42,0,0,0-3.08,1.24L225.23,27a6.91,6.91,0,0,1,4.61-1.67c2.4,0,4.61,1,4.61,4v6.82h-2.77Zm0-2.76a2.79,2.79,0,0,0-2.23-.91c-1.1,0-2,.57-2,1.59s.89,1.55,2,1.55a2.79,2.79,0,0,0,2.23-.91Z" transform="translate(-29.47 -12.04)"/><path class="ada7b0a0-1fca-4e1f-acee-01f7ae868134" d="M242.13,25.33a4.89,4.89,0,0,1,4.17,1.91l-1.81,1.7a2.58,2.58,0,0,0-2.23-1.14,2.83,2.83,0,0,0-2.87,3.06,2.84,2.84,0,0,0,2.87,3.08,2.67,2.67,0,0,0,2.23-1.13l1.81,1.68a4.87,4.87,0,0,1-4.17,1.92,5.36,5.36,0,0,1-5.6-5.55A5.36,5.36,0,0,1,242.13,25.33Z" transform="translate(-29.47 -12.04)"/><path class="ada7b0a0-1fca-4e1f-acee-01f7ae868134" d="M252.9,25.33c3.15,0,5.29,2.36,5.29,5.82v.61h-7.85a2.86,2.86,0,0,0,3,2.45,4.34,4.34,0,0,0,2.82-1.05L257.42,35a6.56,6.56,0,0,1-4.34,1.46,5.34,5.34,0,0,1-5.64-5.55A5.37,5.37,0,0,1,252.9,25.33Zm-2.6,4.55h5.2a2.44,2.44,0,0,0-2.6-2.34A2.53,2.53,0,0,0,250.3,29.88Z" transform="translate(-29.47 -12.04)"/><path class="ada7b0a0-1fca-4e1f-acee-01f7ae868134" d="M260.49,32.83a6,6,0,0,0,3.65,1.44c1.2,0,1.77-.41,1.77-1.07s-.92-1-2.12-1.24c-1.82-.35-4.16-.79-4.16-3.3,0-1.77,1.56-3.33,4.33-3.33a6.75,6.75,0,0,1,4.26,1.45l-1.11,1.9A4.47,4.47,0,0,0,264,27.45c-1,0-1.66.38-1.66,1s.83.89,2,1.13c1.82.35,4.24.83,4.24,3.46,0,1.92-1.64,3.38-4.56,3.38a7.07,7.07,0,0,1-4.72-1.64Z" transform="translate(-29.47 -12.04)"/><path class="bddf0d9c-d728-4d3b-979d-c10c8626607f" d="M273.71,18.73c.83,1.3,1.66,1.94,2.4,1.94a1.1,1.1,0,0,0,.83-.37,1.16,1.16,0,0,0,.37-.92c0-.93-1-1.48-2.95-1.67v-.27c2-.19,2.95-.74,2.95-1.67a1.17,1.17,0,0,0-.37-.92,1.24,1.24,0,0,0-.83-.46c-.74,0-1.57.64-2.4,1.94l-.28-.19a4.59,4.59,0,0,0,.65-2.21c0-.93-.46-1.39-1.3-1.39a1.06,1.06,0,0,0-.92.37,1.71,1.71,0,0,0-.37,1,4.59,4.59,0,0,0,.65,2.21l-.28.19c-.83-1.3-1.66-1.94-2.4-1.94a1.14,1.14,0,0,0-.84.37,1.18,1.18,0,0,0-.36.92c0,.93,1,1.48,2.95,1.67v.27c-2,.19-2.95.74-2.95,1.67a1.2,1.2,0,0,0,.36.92,1.28,1.28,0,0,0,.84.46c.74,0,1.57-.64,2.4-1.94l.28.19a5.18,5.18,0,0,0-.65,2.22,1.38,1.38,0,0,0,.37,1,1.06,1.06,0,0,0,.92.37c.84,0,1.3-.46,1.3-1.38a4.59,4.59,0,0,0-.65-2.22Z" transform="translate(-29.47 -12.04)"/><line class="e540d378-0110-488e-9709-d3de225b53ba" x1="115.83" y1="4.26" x2="115.83" y2="32.17"/></svg>