<svg id="Layer_1" data-name="Layer 1" xmlns="http://www.w3.org/2000/svg" viewBox="0 0 623.76 27.15"><defs><style>.cls-1{fill:#f3f3f3;}</style></defs><path class="cls-1" d="M76.22,67.85h-4.8v9.87H67.58V52.1H78.37c4.88,0,8.22,3.15,8.22,7.87a7.14,7.14,0,0,1-6.38,7.49l6.57,10.26H82.33Zm1.65-12.37H71.42v9h6.45a4.5,4.5,0,1,0,0-9Z" transform="translate(-67.58 -51.33)"/><path class="cls-1" d="M92,52.1h17.2v3.38H95.88V63H109v3.38H95.88v8h13.36v3.38H92Z" transform="translate(-67.58 -51.33)"/><path class="cls-1" d="M118.61,58.05V77.72h-3.84V52.1h4l13.94,19.2V52.1h3.84V77.72h-3.73Z" transform="translate(-67.58 -51.33)"/><path class="cls-1" d="M149.18,55.48h-8V52.1h19.7v3.38H153V77.72h-3.84Z" transform="translate(-67.58 -51.33)"/><path class="cls-1" d="M179.32,72.42H166.76l-2.07,5.3h-4.22L170.64,52.1h4.8l10.18,25.62H181.4ZM167.88,69h10.33L173,55.44Z" transform="translate(-67.58 -51.33)"/><path class="cls-1" d="M189.42,52.1h3.84V74.34H204.9v3.38H189.42Z" transform="translate(-67.58 -51.33)"/><path class="cls-1" d="M210.46,71.15a10.82,10.82,0,0,0,8.07,3.61c4.15,0,5.6-2.11,5.6-4,0-2.68-2.91-3.45-6.18-4.3-4.11-1.07-8.87-2.26-8.87-7.49,0-4.22,3.72-7.29,9.06-7.29a12.55,12.55,0,0,1,9.34,3.57l-2.23,2.84a10,10,0,0,0-7.41-3c-2.85,0-4.8,1.46-4.8,3.61,0,2.31,2.76,3,6,3.84,4.18,1.12,9.06,2.42,9.06,7.88,0,4-2.76,7.72-9.68,7.72-4.57,0-7.91-1.65-10.1-4.07Z" transform="translate(-67.58 -51.33)"/><path class="cls-1" d="M243.87,51.33h2.46V78.49h-2.46Z" transform="translate(-67.58 -51.33)"/><path class="cls-1" d="M269.64,55.48h-7.95V52.1h19.7v3.38h-7.91V77.72h-3.84Z" transform="translate(-67.58 -51.33)"/><path class="cls-1" d="M296.94,51.68c7.64,0,12.9,5.64,12.9,13.25s-5.26,13.25-12.9,13.25S284,72.53,284,64.93,289.3,51.68,296.94,51.68Zm0,3.42c-5.49,0-8.95,4.18-8.95,9.83s3.46,9.83,8.95,9.83,8.95-4.22,8.95-9.83S302.35,55.1,296.94,55.1Z" transform="translate(-67.58 -51.33)"/><path class="cls-1" d="M315.22,52.1h3.88V67.58c0,4.38,2.41,7.18,6.91,7.18s6.87-2.8,6.87-7.18V52.1h3.88V67.65c0,6.38-3.57,10.53-10.75,10.53S315.22,74,315.22,67.69Z" transform="translate(-67.58 -51.33)"/><path class="cls-1" d="M351.85,67.85h-4.8v9.87h-3.84V52.1H354c4.88,0,8.22,3.15,8.22,7.87a7.14,7.14,0,0,1-6.38,7.49l6.57,10.26H358Zm1.65-12.37h-6.45v9h6.45a4.5,4.5,0,1,0,0-9Z" transform="translate(-67.58 -51.33)"/><path class="cls-1" d="M368.28,71.15a10.82,10.82,0,0,0,8.07,3.61c4.15,0,5.61-2.11,5.61-4,0-2.68-2.92-3.45-6.19-4.3-4.11-1.07-8.87-2.26-8.87-7.49,0-4.22,3.73-7.29,9.07-7.29a12.54,12.54,0,0,1,9.33,3.57l-2.23,2.84a10,10,0,0,0-7.41-3c-2.84,0-4.8,1.46-4.8,3.61,0,2.31,2.76,3,5.95,3.84,4.19,1.12,9.06,2.42,9.06,7.88,0,4-2.76,7.72-9.67,7.72-4.57,0-7.92-1.65-10.1-4.07Z" transform="translate(-67.58 -51.33)"/><path class="cls-1" d="M401.69,51.33h2.46V78.49h-2.46Z" transform="translate(-67.58 -51.33)"/><path class="cls-1" d="M427.46,55.48h-7.95V52.1h19.7v3.38H431.3V77.72h-3.84Z" transform="translate(-67.58 -51.33)"/><path class="cls-1" d="M443.93,52.1h3.84V77.72h-3.84Z" transform="translate(-67.58 -51.33)"/><path class="cls-1" d="M453.15,64.93a12.82,12.82,0,0,1,13.13-13.25,11.6,11.6,0,0,1,10.18,5.41l-3.27,1.73a8.1,8.1,0,0,0-6.91-3.72c-5.18,0-9.18,4.07-9.18,9.83s4,9.83,9.18,9.83A8.11,8.11,0,0,0,473.19,71l3.27,1.73a11.64,11.64,0,0,1-10.18,5.42A12.82,12.82,0,0,1,453.15,64.93Z" transform="translate(-67.58 -51.33)"/><path class="cls-1" d="M487.28,66.58l-2.42,2.73v8.41H481V52.1h3.84V64.81L495.58,52.1h4.76L489.78,64.24l11.41,13.48h-4.77Z" transform="translate(-67.58 -51.33)"/><path class="cls-1" d="M505.22,52.1h17.2v3.38H509.06V63h13.09v3.38H509.06v8h13.36v3.38h-17.2Z" transform="translate(-67.58 -51.33)"/><path class="cls-1" d="M534.21,55.48h-8V52.1H546v3.38h-7.91V77.72h-3.84Z" transform="translate(-67.58 -51.33)"/><path class="cls-1" d="M551.14,71.15a10.82,10.82,0,0,0,8.07,3.61c4.15,0,5.6-2.11,5.6-4,0-2.68-2.91-3.45-6.18-4.3-4.11-1.07-8.87-2.26-8.87-7.49,0-4.22,3.73-7.29,9.06-7.29a12.55,12.55,0,0,1,9.34,3.57l-2.23,2.84a10,10,0,0,0-7.41-3c-2.85,0-4.8,1.46-4.8,3.61,0,2.31,2.76,3,5.95,3.84,4.18,1.12,9.06,2.42,9.06,7.88,0,4-2.76,7.72-9.68,7.72-4.57,0-7.91-1.65-10.1-4.07Z" transform="translate(-67.58 -51.33)"/><path class="cls-1" d="M584.55,51.33H587V78.49h-2.46Z" transform="translate(-67.58 -51.33)"/><path class="cls-1" d="M604.06,52.1h17.2v3.38H607.9V63H621v3.38H607.9v8h13.36v3.38h-17.2Z" transform="translate(-67.58 -51.33)"/><path class="cls-1" d="M643,72.42H630.44l-2.08,5.3h-4.22L634.32,52.1h4.8l10.17,25.62h-4.22ZM631.55,69h10.33L636.7,55.44Z" transform="translate(-67.58 -51.33)"/><path class="cls-1" d="M656.82,55.48h-8V52.1h19.7v3.38h-7.91V77.72h-3.84Z" transform="translate(-67.58 -51.33)"/><path class="cls-1" d="M673.75,71.15a10.82,10.82,0,0,0,8.07,3.61c4.14,0,5.6-2.11,5.6-4,0-2.68-2.92-3.45-6.18-4.3-4.11-1.07-8.87-2.26-8.87-7.49,0-4.22,3.72-7.29,9.06-7.29a12.55,12.55,0,0,1,9.34,3.57l-2.23,2.84a10,10,0,0,0-7.41-3c-2.85,0-4.8,1.46-4.8,3.61,0,2.31,2.76,3,5.95,3.84,4.18,1.12,9.06,2.42,9.06,7.88,0,4-2.76,7.72-9.68,7.72-4.57,0-7.91-1.65-10.1-4.07Z" transform="translate(-67.58 -51.33)"/></svg>